<?xml version="1.0" encoding="iso-8859-1"?>
<!-- Generator: Adobe Illustrator 19.0.0, SVG Export Plug-In . SVG Version: 6.00 Build 0)  -->
<svg version="1.1" id="Capa_1" xmlns="http://www.w3.org/2000/svg" xmlns:xlink="http://www.w3.org/1999/xlink" x="0px" y="0px"
	 viewBox="0 0 464 464" style="enable-background:new 0 0 464 464;" xml:space="preserve">
<path style="fill:#FFD33F;" d="M199.803,408c0-145.803,118.197-264,264-264V96c-172.313,0-312,139.687-312,312H199.803z"/>
<path style="fill:#3FD100;" d="M463.803,96c-172.313,0-312,139.687-312,312h-48c0-198.823,161.177-360,360-360V96z"/>
<path style="fill:#FF2B4E;" d="M463.803,192c-119.294,0-216,96.706-216,216l0,0h-48c0-145.803,118.197-264,264-264V192z"/>
<path style="fill:#1598FC;" d="M463.803,48c-198.823,0-360,161.177-360,360h-48c0-225.332,182.668-408,408-408V48z"/>
<path style="fill:#75E6FF;" d="M247.803,384c-2.7-0.003-5.394,0.265-8.04,0.8c0-0.272,0.04-0.536,0.04-0.8
	c-0.016-33.774-26.291-61.713-60-63.8c-21.992-33.129-66.677-42.158-99.807-20.165c-17.91,11.889-29.571,31.159-31.793,52.541
	c-30.611,4.419-51.843,32.816-47.424,63.427c3.956,27.401,27.34,47.799,55.024,47.997h192c22.091,0,40-17.909,40-40
	S269.894,384,247.803,384L247.803,384z"/>
<g>
</g>
<g>
</g>
<g>
</g>
<g>
</g>
<g>
</g>
<g>
</g>
<g>
</g>
<g>
</g>
<g>
</g>
<g>
</g>
<g>
</g>
<g>
</g>
<g>
</g>
<g>
</g>
<g>
</g>
</svg>
