<?xml version="1.0" encoding="iso-8859-1"?>
<!-- Generator: Adobe Illustrator 19.0.0, SVG Export Plug-In . SVG Version: 6.00 Build 0)  -->
<svg version="1.1" id="Capa_1" xmlns="http://www.w3.org/2000/svg" xmlns:xlink="http://www.w3.org/1999/xlink" x="0px" y="0px"
	 viewBox="0 0 512 512" style="enable-background:new 0 0 512 512;" xml:space="preserve">
<circle style="fill:#228CE4;" cx="256" cy="256" r="256"/>
<g>
	<path style="fill:#0666A9;" d="M277.919,511.056c17.524-1.486,34.542-4.738,50.882-9.576L161.667,334.346l-12.586,44.118
		l54.313,54.313L201.863,435L277.919,511.056z"/>
	<path style="fill:#0666A9;" d="M512,256c0-5.403-0.188-10.762-0.517-16.082L391.517,119.953L143,297.598l199.429,199.429
		C441.282,461.574,512,367.052,512,256z"/>
</g>
<circle style="fill:#FEE900;" cx="175.26" cy="184.93" r="92.37"/>
<path style="fill:#FED500;" d="M175.259,92.561c-0.413,0-0.823,0.01-1.235,0.016v184.702c0.412,0.005,0.822,0.016,1.235,0.016
	c51.012,0,92.366-41.354,92.366-92.367S226.271,92.561,175.259,92.561z"/>
<path style="fill:#FFFFFF;" d="M361.386,320.333c48.388,0,87.614-37.804,87.614-84.438c0-24.154-10.525-45.937-27.394-61.327
	c-9.618-48.622-53.956-85.378-107.208-85.378c-44.712,0-83.137,25.913-100.008,63.004c-3.793-0.483-7.66-0.736-11.59-0.736
	c-48.388,0-87.614,37.804-87.614,84.438s39.226,84.438,87.614,84.438h158.586V320.333z"/>
<path style="fill:#ECFFFF;" d="M421.606,174.568c-9.618-48.622-53.956-85.378-107.208-85.378c-21.668,0-41.849,6.099-58.827,16.594
	v214.55h105.815c48.388,0,87.614-37.804,87.614-84.438C449,211.741,438.475,189.958,421.606,174.568z"/>
<g>
	<path style="fill:#E0F4FD;" d="M180.333,364.68c0,10.309-8.357,18.667-18.667,18.667c-10.309,0-18.667-8.357-18.667-18.667
		c0-10.309,18.667-30.333,18.667-30.333S180.333,354.37,180.333,364.68z"/>
	<path style="fill:#E0F4FD;" d="M232.5,420.68c0,10.309-8.357,18.667-18.667,18.667c-10.309,0-18.667-8.357-18.667-18.667
		c0-10.309,18.667-30.333,18.667-30.333S232.5,410.37,232.5,420.68z"/>
	<path style="fill:#E0F4FD;" d="M284.667,364.68c0,10.309-8.357,18.667-18.667,18.667c-10.309,0-18.667-8.357-18.667-18.667
		c0-10.309,18.667-30.333,18.667-30.333S284.667,354.37,284.667,364.68z"/>
</g>
<g>
	<path style="fill:#80D3F9;" d="M266,334.346c0,0-0.116,0.125-0.31,0.337v48.647c0.104,0.002,0.205,0.016,0.31,0.016
		c10.309,0,18.667-8.357,18.667-18.667C284.667,354.37,266,334.346,266,334.346z"/>
	<path style="fill:#80D3F9;" d="M336.833,420.68c0,10.309-8.357,18.667-18.667,18.667c-10.309,0-18.667-8.357-18.667-18.667
		c0-10.309,18.667-30.333,18.667-30.333S336.833,410.37,336.833,420.68z"/>
	<path style="fill:#80D3F9;" d="M389,364.68c0,10.309-8.357,18.667-18.667,18.667c-10.309,0-18.667-8.357-18.667-18.667
		c0-10.309,18.667-30.333,18.667-30.333S389,354.37,389,364.68z"/>
</g>
<g>
</g>
<g>
</g>
<g>
</g>
<g>
</g>
<g>
</g>
<g>
</g>
<g>
</g>
<g>
</g>
<g>
</g>
<g>
</g>
<g>
</g>
<g>
</g>
<g>
</g>
<g>
</g>
<g>
</g>
</svg>
